<svg xmlns="http://www.w3.org/2000/svg" width="16" height="16" viewBox="0 0 16 16" fill="none">
  <path fill-rule="evenodd" clip-rule="evenodd" d="M8.00029 0.921412C7.58871 0.55314 6.95652 0.588245 6.58825 0.999821L1.12046 7.11055L1.07367 7.16576C0.668114 7.67111 0.683702 8.40058 1.12044 8.8887L6.58823 14.9998L6.63187 15.0456C7.0048 15.4135 7.60451 15.4323 8.00027 15.0782L8.04609 15.0346C8.41396 14.6616 8.43281 14.0619 8.07872 13.6662L3.90324 8.99963H14.5001L14.5589 8.99794C15.0838 8.96752 15.5001 8.53219 15.5001 7.99963C15.5001 7.44735 15.0524 6.99963 14.5001 6.99963H3.9033L8.0787 2.33345L8.1194 2.28501C8.44371 1.87363 8.39603 1.27552 8.00029 0.921412Z" fill="#135BB4"/>
</svg>