<svg xmlns="http://www.w3.org/2000/svg" width="17" height="16" viewBox="0 0 17 16" fill="none">
  <path fill-rule="evenodd" clip-rule="evenodd" d="M9.49795 1.60088C9.4641 1.07924 9.03027 0.666626 8.50008 0.666626C7.9478 0.666626 7.50008 1.11434 7.50008 1.66663V6.99996H2.16675C1.61446 6.99996 1.16675 7.44767 1.16675 7.99996C1.16675 8.53015 1.57936 8.96397 2.101 8.99783L2.16675 8.99996H7.50008V14.3333L7.50221 14.399C7.53607 14.9207 7.96989 15.3333 8.50008 15.3333C9.05237 15.3333 9.50008 14.8856 9.50008 14.3333V8.99996H14.8334C15.3857 8.99996 15.8334 8.55224 15.8334 7.99996C15.8334 7.46977 15.4208 7.03594 14.8992 7.00209L14.8334 6.99996H9.50008V1.66663L9.49795 1.60088Z" fill="white"/>
</svg>